<svg width="68" height="70" viewBox="0 0 68 70" fill="none" xmlns="http://www.w3.org/2000/svg">
<path d="M32.8247 10.0241C43.5977 10.0241 52.412 20.0306 53.2776 30.6756C51.9 30.8211 50.4968 30.8031 48.4919 30.7221C48.0156 30.7028 47.5082 30.6802 46.963 30.6558C44.28 30.5361 40.6813 30.3756 35.3686 30.3756H35.2945H35.2208H35.1475H35.0746H35.002H34.9299H34.8581H34.7867H34.7157H34.6451H34.5748H34.5049H34.4354H34.3663H34.2976H34.2292H34.1612H34.0935H34.0262H33.9593H33.8928H33.8266H33.7607H33.6953H33.6301H33.5654H33.5009H33.4369H33.3731H33.3098H33.2467H33.184H33.1217H33.0597H32.998H32.9367H32.8757H32.815H32.7547H32.6947H32.635H32.5757H32.5166H32.4579H32.3996H32.3415H32.2838H32.2263H32.1692H32.1124H32.0559H31.9998H31.9439H31.8883H31.8331H31.7781H31.7235H31.6691H31.6151H31.5613H31.5078H31.4547H31.4018H31.3492H31.2969H31.2449H31.1931H31.1417H31.0905H31.0396H30.989H30.9387H30.8886H30.8388H30.7893H30.7401H30.6911H30.6424H30.5939H30.5457H30.4978H30.4501H30.4027H30.3556H30.3087H30.262H30.2156H30.1695H30.1236H30.0779H30.0325H29.9873H29.9424H29.8977H29.8533H29.8091H29.7651H29.7213H29.6778H29.6345H29.5915H29.5486H29.506H29.4636H29.4215H29.3795H29.3378H29.2963H29.255H29.2139H29.173H29.1323H29.0919H29.0516H29.0116H28.9717H28.9321H28.8926H28.8534H28.8143H28.7754H28.7368H28.6983H28.66H28.6219H28.584H28.5462H28.5087H28.4713H28.4341H28.3971H28.3602H28.3236H28.2871H28.2507H28.2146H28.1786H28.1428H28.1071H28.0716H28.0362H28.0011H27.966H27.9312H27.8964H27.8619H27.8275H27.7932H27.7591H27.7251H27.6913H27.6576H27.624H27.5906H27.5573H27.5242H27.4912H27.4583H27.4256H27.393H27.3605H27.3281H27.2959H27.2637H27.2317H27.1999H27.1681H27.1364H27.1049H27.0735H27.0422H27.0109H26.9798H26.9488H26.918H26.8872H26.8565H26.8259H26.7954H26.765H26.7347H26.7044H26.6743H26.6443H26.6143H26.5844H26.5547H26.525H26.4953H26.4658H26.4363H26.4069H26.3776H26.3483H26.3191H26.29H26.261H26.232H26.2031H26.1742H26.1454H26.1167H26.088H26.0593H26.0308H26.0022H25.9737H25.9453H25.9169H25.8886H25.8603H25.832H25.8038H25.7756H25.7475H25.7194H25.6913H25.6632H25.6352H25.6072H25.5793H25.5513H25.5234H25.4955H25.4676H25.4398H25.4119H25.3841H25.3563H25.3285H25.3007H25.2729H25.2451H25.2173H25.1895H25.1617H25.134H25.1062H25.0784H25.0506H25.0228H24.995H24.9672H24.9393H24.9115H24.8836H24.8557H24.8278H24.7999H24.772H24.744H24.716H24.688H24.6599H24.6318H24.6037H24.5756H24.5474H24.5192H24.4909H24.4626H24.4342H24.4058H24.3774H24.3489H24.3204H24.2918H24.2631H24.2344H24.2057H24.1769H24.148H24.1191H24.0901H24.061H24.0319H24.0027H23.9734H23.9441H23.9147H23.8852H23.8556H23.826H23.7963H23.7665H23.7366H23.7066H23.6765H23.6464H23.6162H23.5858H23.5554H23.5249H23.4943H23.4636H23.4328H23.4019H23.3708H23.3397H23.3085H23.2772H23.2457H23.2142H23.1825H23.1507H23.1188H23.0868H23.0546H23.0224H22.99H22.9575H22.9248H22.8921H22.8592H22.8261H22.793H22.7597H22.7262H22.6927H22.659H22.6251H22.5911H22.5569H22.5227H22.4882H22.4536H22.4189H22.384H22.3489H22.3137H22.2783H22.2428H22.2071H22.1713H22.1352H22.099H22.0627H22.0262H21.9895H21.9526H21.9155H21.8783H21.8409H21.8033H21.7655H21.7276H21.6894H21.6511H21.6126H21.5739H21.535H21.4959H21.4566H21.4171H21.3774H21.3376H21.2975H21.2572H21.2167H21.176H21.1351H21.0939H21.0526H21.011H20.9693H20.9273H20.8851H20.8426H20.8H20.7571H20.714H20.6707H20.6271H20.5834H20.5393H20.4951H20.4506H20.4059H20.3609H20.3157H20.2702H20.2245H20.1786H20.1324H20.086H20.0393H19.9923H19.9451H19.8977H19.85H19.802H19.7537H19.7053H19.6565H19.6075H19.5582H19.5086H19.4588H19.4087H19.3583H19.3076H19.2567H19.2055H19.154H19.1022H19.0501H18.9978H18.9451H18.8922H18.839H18.7854H18.7316H18.6775H18.6231H18.5684H18.5134H18.4581H18.4025H18.3465H18.2903H18.2338H18.1769H18.1198H18.0623H18.0045H17.9464H17.8879H17.8292H17.7701H17.7107H17.651H17.5909H17.5305H17.4698H17.4087H17.3473H17.2856H17.2235H17.1611H17.0984H17.0353H16.9719H16.9081H16.8439H16.7795H16.7146H16.6494H16.5839H16.518H16.4517H16.3851H16.3181H16.2508H16.1831H16.115H16.0465H15.9777H15.9085H15.839H15.769H15.6987H15.628H15.557H15.4855H15.4137H15.3414H15.2688H15.1958H15.1224H15.0486H14.9745H14.8999H14.8249H14.7495H14.6738H14.5976H14.521H14.444H14.3666H14.2888H14.2106H14.132H14.053H13.9735H13.8937H13.8134H13.7327H13.664C14.5379 19.7126 22.2767 10.0241 32.8247 10.0241Z" stroke="#09B85A" stroke-width="4.01674"/>
<path d="M2 65.6066C6.11758 62.3932 8.69523 61.412 12.5354 63.0627M54.0167 63.0627C50.0932 65.6864 45.4015 67.8952 40.0251 64.6693C36.2761 61.1882 30.9205 61.8577 26.7699 64.6693C22.5344 68.4291 19.7633 67.8846 14.3849 63.9999C13.7326 63.6257 13.1194 63.3138 12.5354 63.0627M54.0167 63.0627C59.0377 60.3849 60.1296 61.9029 66 65.6066M54.0167 63.0627L53.2134 30.7949H45.5816M12.5354 63.0627L13.7155 30.7949H21.4812M21.4812 30.7949V41.1045M21.4812 30.7949H33.5983M33.5983 30.7949V37.4895M33.5983 30.7949H45.5816M45.5816 30.7949V41.1045M37.749 46.2594V53.0878M25.431 50.5439V58.0418M45.5816 58.0418V65.6066" stroke="#09B85A" stroke-width="4.01674" stroke-linejoin="round"/>
<path fill-rule="evenodd" clip-rule="evenodd" d="M55.2222 44.1863V50.6763C55.3121 50.5808 55.4013 50.4847 55.4899 50.388C60.395 45.0366 63.3895 37.8981 63.3895 30.0585C63.3895 13.4576 49.9618 -6.10352e-05 33.3979 -6.10352e-05C16.834 -6.10352e-05 3.40625 13.4576 3.40625 30.0585C3.40625 38.0397 6.50994 45.2945 11.5737 50.6764V44.1864C8.94786 40.1179 7.42299 35.2677 7.42299 30.0585C7.42299 15.6676 19.0608 4.01668 33.3979 4.01668C47.735 4.01668 59.3728 15.6676 59.3728 30.0585C59.3728 35.2677 57.8479 40.1178 55.2222 44.1863ZM33.3428 60.1171C33.3612 60.1171 33.3795 60.1171 33.3979 60.1171C33.4162 60.1171 33.4346 60.1171 33.4529 60.1171H33.3428Z" fill="#09B85A"/>
</svg>
