<svg width="30" height="24" viewBox="0 0 30 24" fill="none" xmlns="http://www.w3.org/2000/svg">
<path d="M1.15385 1.15385V0C0.847827 0 0.554342 0.121565 0.337954 0.337954C0.121565 0.554342 0 0.847827 0 1.15385H1.15385ZM28.8462 1.15385H30C30 0.847827 29.8784 0.554342 29.662 0.337954C29.4457 0.121565 29.1522 0 28.8462 0V1.15385ZM1.15385 2.30769H28.8462V0H1.15385V2.30769ZM27.6923 1.15385V19.6154H30V1.15385H27.6923ZM25.7692 21.5385H4.23077V23.8462H25.7692V21.5385ZM2.30769 19.6154V1.15385H0V19.6154H2.30769ZM4.23077 21.5385C3.16923 21.5385 2.30769 20.6769 2.30769 19.6154H0C0 20.7375 0.445741 21.8136 1.23916 22.607C2.03259 23.4004 3.1087 23.8462 4.23077 23.8462V21.5385ZM27.6923 19.6154C27.6923 20.6769 26.8308 21.5385 25.7692 21.5385V23.8462C26.8913 23.8462 27.9674 23.4004 28.7608 22.607C29.5543 21.8136 30 20.7375 30 19.6154H27.6923Z" fill="#EC3237"/>
<path d="M1.15381 1.15384L15 15L28.8461 1.15384" stroke="#EC3237" stroke-width="1.5" stroke-linecap="round" stroke-linejoin="round"/>
</svg>
