<svg width="30" height="30" viewBox="0 0 30 30" fill="none" xmlns="http://www.w3.org/2000/svg">
<path d="M9.06724 23.1175L9.97224 23.6462C11.4984 24.5363 13.2342 25.0036 15.001 25C16.9788 25 18.9122 24.4135 20.5567 23.3147C22.2012 22.2159 23.4829 20.6541 24.2398 18.8268C24.9967 16.9996 25.1947 14.9889 24.8088 13.0491C24.423 11.1093 23.4706 9.32746 22.0721 7.92893C20.6735 6.53041 18.8917 5.578 16.9519 5.19215C15.0121 4.8063 13.0014 5.00433 11.1742 5.7612C9.3469 6.51808 7.78511 7.79981 6.6863 9.4443C5.58748 11.0888 5.00099 13.0222 5.00099 15C4.99735 16.7673 5.46508 18.5037 6.35599 20.03L6.88349 20.935L6.06724 23.9363L9.06724 23.1175ZM2.50599 27.5L4.19599 21.29C3.08236 19.3811 2.4973 17.21 2.50099 15C2.50099 8.09625 8.09724 2.5 15.001 2.5C21.9047 2.5 27.501 8.09625 27.501 15C27.501 21.9037 21.9047 27.5 15.001 27.5C12.792 27.5036 10.6218 26.919 8.71349 25.8063L2.50599 27.5ZM10.4897 9.135C10.6572 9.1225 10.826 9.1225 10.9935 9.13C11.061 9.135 11.1285 9.1425 11.196 9.15C11.3947 9.1725 11.6135 9.29375 11.6872 9.46125C12.0597 10.3062 12.4222 11.1575 12.7722 12.0113C12.8497 12.2013 12.8035 12.445 12.656 12.6825C12.581 12.8037 12.4635 12.9737 12.3272 13.1475C12.186 13.3287 11.8822 13.6612 11.8822 13.6612C11.8822 13.6612 11.7585 13.8088 11.806 13.9925C11.8235 14.0625 11.881 14.1638 11.9335 14.2488L12.0072 14.3675C12.3272 14.9013 12.7572 15.4425 13.2822 15.9525C13.4322 16.0975 13.5785 16.2462 13.736 16.385C14.321 16.9012 14.9835 17.3225 15.6985 17.635L15.7047 17.6375C15.811 17.6837 15.8647 17.7088 16.0197 17.775C16.0972 17.8075 16.1772 17.835 16.2585 17.8575C16.3425 17.8789 16.4309 17.8749 16.5126 17.8459C16.5942 17.817 16.6655 17.7645 16.7172 17.695C17.6222 16.5988 17.7047 16.5275 17.7122 16.5275V16.53C17.7751 16.4714 17.8498 16.4269 17.9313 16.3995C18.0128 16.3721 18.0992 16.3625 18.1847 16.3713C18.2597 16.3763 18.336 16.39 18.406 16.4213C19.0697 16.725 20.156 17.1987 20.156 17.1987L20.8835 17.525C21.006 17.5838 21.1172 17.7225 21.121 17.8562C21.126 17.94 21.1335 18.075 21.1047 18.3225C21.0647 18.6462 20.9672 19.035 20.8697 19.2387C20.8029 19.3778 20.7143 19.5052 20.6072 19.6162C20.4811 19.7487 20.343 19.8692 20.1947 19.9762C20.0922 20.0537 20.0385 20.0887 20.0385 20.0887C19.883 20.1873 19.7233 20.2791 19.5597 20.3638C19.2379 20.5347 18.8824 20.6328 18.5185 20.6512C18.2872 20.6637 18.056 20.6812 17.8235 20.6687C17.8135 20.6687 17.1135 20.56 17.1135 20.56C15.3363 20.0925 13.6927 19.2168 12.3135 18.0025C12.031 17.7538 11.7685 17.4863 11.501 17.22C10.391 16.1138 9.54974 14.92 9.03849 13.7925C8.77813 13.2394 8.63756 12.6375 8.62599 12.0263C8.62129 11.2672 8.86982 10.5282 9.33224 9.92625C9.42349 9.80875 9.50974 9.68625 9.65849 9.545C9.81599 9.395 9.91724 9.315 10.026 9.26C10.1706 9.18754 10.3283 9.14502 10.4897 9.135Z" fill="#EC3237"/>
</svg>
