<svg width="64" height="64" viewBox="0 0 64 64" fill="none" xmlns="http://www.w3.org/2000/svg">
<path d="M50 40C50 51.0462 43.0463 58 32 58C20.9537 58 14 51.0462 14 40C14 28.1462 26.9037 12.1437 30.8612 7.51499C31.0021 7.35053 31.1768 7.21851 31.3735 7.12799C31.5702 7.03747 31.7841 6.9906 32.0006 6.9906C32.2171 6.9906 32.4311 7.03747 32.6278 7.12799C32.8244 7.21851 32.9992 7.35053 33.14 7.51499C37.0962 12.1437 50 28.1462 50 40Z" stroke="#0A98E9" stroke-width="3.9375" stroke-miterlimit="10"/>
<path d="M43 41C43 43.3869 42.0518 45.6761 40.364 47.364C38.6761 49.0518 36.3869 50 34 50" stroke="#0A98E9" stroke-width="3.9375" stroke-linecap="round" stroke-linejoin="round"/>
</svg>
